# xmcd
# 
# Track frame offsets:
#     183
#     14658
#     27333
#     48933
#     70683
#     93333
#     115008
#     133545
#     153058
#     169858
#     183258
#     202213
#     224533
# 
# Disc length: 3309
# 
# Revision: 3
# Processed by: cddbd v1.5.2PL0 Copyright (c) Steve Scherf et al.
# Submitted via: BonkEnc v1.0beta4
# 
DISCID=b00ceb0d
DTITLE=The Police - Their Greatest Hits
DYEAR=1990
DGENRE=Rock
TTITLE0=Roxanne
TTITLE1=Can't Stand Losing You
TTITLE2=So Lonely
TTITLE3=Message In A Bottle
TTITLE4=Walking On The Moon
TTITLE5=Don't Stand So Close To Me '86
TTITLE6=De Do Do Do De Da Da Da
TTITLE7=Every Little Thing She Does Is Magic
TTITLE8=Invisible Sun
TTITLE9=Spirits In The Material World
TTITLE10=Every Breath You Take
TTITLE11=King Of Pain
TTITLE12=Wrapped Around Your Finger
EXTD=\n YEAR: 1990
EXTT0=
EXTT1=
EXTT2=
EXTT3=
EXTT4=
EXTT5=
EXTT6=
EXTT7=
EXTT8=
EXTT9=
EXTT10=
EXTT11=
EXTT12=
PLAYORDER=
